<?xml version="1.0" encoding="UTF-8"?>
<svg version="1.1" xmlns="http://www.w3.org/2000/svg" width="512" height="512">
<path d="M0 0 C7.26351835 5.57396082 11.14943095 11.4209292 12.796875 20.37890625 C12.796875 25.65890625 12.796875 30.93890625 12.796875 36.37890625 C24.676875 36.37890625 36.556875 36.37890625 48.796875 36.37890625 C49.786875 32.74890625 50.776875 29.11890625 51.796875 25.37890625 C52.74781172 22.23954714 53.71624817 19.12040057 54.734375 16.00390625 C54.97349609 15.23691406 55.21261719 14.46992187 55.45898438 13.6796875 C57.45092257 7.59350166 59.5289296 3.83464096 65.07763672 0.27307129 C71.01103196 -2.58830509 77.15148663 -2.17934168 83.61328125 -2.13867188 C85.00048556 -2.14410008 86.38768409 -2.15122666 87.77487183 -2.15991211 C91.52289485 -2.17806572 95.27047485 -2.17111129 99.0185051 -2.15839577 C102.95188285 -2.14822653 106.88522418 -2.15767229 110.81860352 -2.16394043 C117.42243213 -2.17120547 124.02608146 -2.1616593 130.62988281 -2.14257812 C138.25082423 -2.12081146 145.87133751 -2.12786365 153.49226856 -2.14988375 C160.05049952 -2.16807049 166.60860204 -2.17058013 173.16685009 -2.16012907 C177.07721658 -2.15391206 180.98738223 -2.1530088 184.8977356 -2.16627502 C188.57514484 -2.17788084 192.25200529 -2.16972261 195.92935562 -2.146698 C197.91252144 -2.13893776 199.895734 -2.15072634 201.87887573 -2.16320801 C209.68491592 -2.08948228 215.80590148 -1.51925393 221.64453125 4.18359375 C226.65984095 12.73058456 232.796875 26.29818913 232.796875 36.37890625 C244.676875 36.37890625 256.556875 36.37890625 268.796875 36.37890625 C268.796875 31.09890625 268.796875 25.81890625 268.796875 20.37890625 C270.33396732 11.5662436 274.11769438 6.3099319 280.796875 0.37890625 C289.67215664 -5.71481067 301.30521582 -5.83207427 311.6484375 -4.16015625 C319.88821739 -1.99179312 325.92564683 2.53463669 330.7890625 9.47265625 C334.00186228 15.54957987 334.04626492 21.0464188 333.921875 27.75390625 C333.91285156 28.68074219 333.90382813 29.60757813 333.89453125 30.5625 C333.87110437 32.83490702 333.83830248 35.10676805 333.796875 37.37890625 C335.63378906 37.56066406 335.63378906 37.56066406 337.5078125 37.74609375 C345.05684123 38.70011015 350.84937544 42.53490681 355.515625 48.484375 C359.76542668 54.76838054 361.94385264 60.59737153 361.89453125 68.2421875 C361.89130859 69.12841797 361.88808594 70.01464844 361.88476562 70.92773438 C361.87638672 71.83974609 361.86800781 72.75175781 361.859375 73.69140625 C361.85486328 74.62275391 361.85035156 75.55410156 361.84570312 76.51367188 C361.83396734 78.80214998 361.81754863 81.09049433 361.796875 83.37890625 C362.76367188 83.32089844 363.73046875 83.26289062 364.7265625 83.203125 C374.30600405 82.87116415 381.49598459 83.570888 388.85546875 90.24609375 C396.02259796 97.90493868 397.44927946 104.25866802 397.203125 114.6484375 C396.38949583 122.11974386 393.358703 127.2286353 387.921875 132.31640625 C382.42376739 136.69835667 377.92985795 138.54873918 370.796875 138.37890625 C370.76398677 165.42975337 370.77086989 192.48033594 370.82534122 219.53115463 C370.84970091 232.09083229 370.86095471 244.65026837 370.84155273 257.20996094 C370.82467859 268.15466731 370.83219332 279.09903589 370.86922258 290.0436976 C370.88797914 295.84106763 370.89436818 301.63786613 370.87156868 307.43523407 C370.85050591 312.88886161 370.86198237 318.34144013 370.89871979 323.79497528 C370.90643098 325.79930674 370.90212122 327.80372496 370.88506126 329.80799866 C370.86358009 332.54039412 370.88488453 335.26919205 370.91712952 338.00140381 C370.90063057 338.79906969 370.88413163 339.59673557 370.86713272 340.41857314 C370.8506802 342.91816801 370.8506802 342.91816801 371.796875 346.37890625 C374.01281811 348.29079592 376.07522076 349.16149423 378.796875 350.37890625 C380.72265625 352.2734375 380.72265625 352.2734375 382.109375 354.19140625 C382.81513672 355.12919922 382.81513672 355.12919922 383.53515625 356.0859375 C387.32841054 362.97956063 387.10387157 369.98374128 387.09765625 377.6640625 C387.10194138 378.83851425 387.1062265 380.012966 387.11064148 381.2230072 C387.11636827 383.69822547 387.11689725 386.17346057 387.11254883 388.64868164 C387.10938279 392.43209471 387.1328909 396.21473 387.15820312 399.99804688 C387.16047568 402.4075511 387.16117982 404.81705742 387.16015625 407.2265625 C387.169366 408.35481949 387.17857574 409.48307648 387.18806458 410.64552307 C387.14999313 417.1126525 386.82264086 421.98197978 382.33203125 427.0234375 C376.84778651 431.37301091 372.82701168 431.52650555 365.99689674 431.5075407 C364.80489916 431.51017026 364.80489916 431.51017026 363.58882082 431.51285294 C360.90958933 431.51752766 358.23041177 431.51504365 355.55117798 431.51261902 C353.61747009 431.51448625 351.68376258 431.5167866 349.75005567 431.51948434 C344.42333434 431.5256196 339.09662867 431.52546672 333.76990461 431.52428997 C328.03019943 431.52408639 322.29049934 431.52960052 316.55079651 431.53434753 C305.30099614 431.54266401 294.051201 431.54540282 282.80139782 431.54595991 C273.6601431 431.54643458 264.51889012 431.54848688 255.37763596 431.55166054 C233.69482483 431.55903553 212.01201518 431.56518507 190.32920265 431.56466198 C189.63555656 431.5646464 188.94191048 431.56463082 188.22724481 431.56461477 C184.71143428 431.56453166 181.19562375 431.56443262 177.67981322 431.56433006 C176.63240498 431.56430015 176.63240498 431.56430015 175.56383698 431.56426962 C174.15176028 431.56422919 172.73968357 431.56418739 171.32760687 431.56414423 C149.35446567 431.56353138 127.38133991 431.57103938 105.40820312 431.5847168 C80.73052715 431.6000713 56.0528617 431.60867073 31.3751806 431.60775357 C18.30540731 431.60742113 5.23565142 431.6101889 -7.83411789 431.62093163 C-18.96068686 431.6300183 -30.08723054 431.632227 -41.21380161 431.6254222 C-46.89343776 431.62214776 -52.57302535 431.62213352 -58.25265694 431.63077545 C-63.44882868 431.63860064 -68.64491302 431.63725001 -73.84108253 431.62849132 C-75.72396478 431.62694751 -77.60685342 431.62880536 -79.48972814 431.6343514 C-82.04374697 431.64137786 -84.59745636 431.63614434 -87.15146446 431.62779522 C-87.886997 431.6327634 -88.62252954 431.63773158 -89.38035095 431.64285031 C-96.2627151 431.59509902 -101.16612944 430.13606872 -106.203125 425.37890625 C-108.28228593 422.09430086 -108.47419019 419.42564685 -108.52539062 415.57568359 C-108.54460571 414.40701752 -108.5638208 413.23835144 -108.58361816 412.03427124 C-108.5963678 410.14365463 -108.5963678 410.14365463 -108.609375 408.21484375 C-108.62077515 406.91245758 -108.63217529 405.61007141 -108.6439209 404.26821899 C-108.66490915 401.50936328 -108.67661312 398.75062347 -108.68359375 395.99169922 C-108.69451812 392.48113219 -108.74248113 388.97213457 -108.79953766 385.46205711 C-108.84610193 382.08802102 -108.84971124 378.71418397 -108.859375 375.33984375 C-108.8840686 374.09157806 -108.90876221 372.84331238 -108.9342041 371.55722046 C-108.89322354 363.44891469 -107.51625919 357.66760234 -102.203125 351.37890625 C-97.91061601 347.85867436 -94.71585621 346.48145249 -89.203125 345.37890625 C-89.203125 277.06890625 -89.203125 208.75890625 -89.203125 138.37890625 C-92.173125 138.04890625 -95.143125 137.71890625 -98.203125 137.37890625 C-105.38863913 134.56970686 -110.09786284 128.7473257 -114.078125 122.37890625 C-116.89752809 114.85483656 -116.49268067 105.13593277 -113.203125 97.87890625 C-109.6542658 91.85386564 -104.10429099 86.35230114 -97.4765625 83.80078125 C-91.83568341 82.75402018 -85.9163858 83.18037595 -80.203125 83.37890625 C-80.21883545 82.82541504 -80.2345459 82.27192383 -80.25073242 81.70166016 C-80.86217544 56.90854873 -80.86217544 56.90854873 -72.94140625 47.19921875 C-68.46890352 42.51565409 -63.61640259 38.80407905 -57.203125 37.37890625 C-55.5366359 37.35457794 -53.86955633 37.350899 -52.203125 37.37890625 C-52.22407227 36.82017822 -52.24501953 36.2614502 -52.26660156 35.68579102 C-52.35078794 33.10451952 -52.40210193 30.52353801 -52.453125 27.94140625 C-52.48664062 27.06291016 -52.52015625 26.18441406 -52.5546875 25.27929688 C-52.68333854 16.56318908 -49.95596216 9.4189062 -44.04296875 2.94921875 C-32.50456755 -6.89884342 -12.82350382 -7.97057233 0 0 Z M72.796875 14.37890625 C68.46659828 24.5515509 68.46659828 24.5515509 65.796875 36.37890625 C115.296875 36.37890625 164.796875 36.37890625 215.796875 36.37890625 C213.12715172 24.5515509 213.12715172 24.5515509 208.796875 14.37890625 C163.916875 14.37890625 119.036875 14.37890625 72.796875 14.37890625 Z " fill="#F8F6F7" transform="translate(115.203125,42.62109375)"/>
<path d="M0 0 C7.26351835 5.57396082 11.14943095 11.4209292 12.796875 20.37890625 C12.796875 25.65890625 12.796875 30.93890625 12.796875 36.37890625 C24.676875 36.37890625 36.556875 36.37890625 48.796875 36.37890625 C49.786875 32.74890625 50.776875 29.11890625 51.796875 25.37890625 C52.74781172 22.23954714 53.71624817 19.12040057 54.734375 16.00390625 C54.97349609 15.23691406 55.21261719 14.46992187 55.45898438 13.6796875 C57.45092257 7.59350166 59.5289296 3.83464096 65.07763672 0.27307129 C71.01103196 -2.58830509 77.15148663 -2.17934168 83.61328125 -2.13867188 C85.00048556 -2.14410008 86.38768409 -2.15122666 87.77487183 -2.15991211 C91.52289485 -2.17806572 95.27047485 -2.17111129 99.0185051 -2.15839577 C102.95188285 -2.14822653 106.88522418 -2.15767229 110.81860352 -2.16394043 C117.42243213 -2.17120547 124.02608146 -2.1616593 130.62988281 -2.14257812 C138.25082423 -2.12081146 145.87133751 -2.12786365 153.49226856 -2.14988375 C160.05049952 -2.16807049 166.60860204 -2.17058013 173.16685009 -2.16012907 C177.07721658 -2.15391206 180.98738223 -2.1530088 184.8977356 -2.16627502 C188.57514484 -2.17788084 192.25200529 -2.16972261 195.92935562 -2.146698 C197.91252144 -2.13893776 199.895734 -2.15072634 201.87887573 -2.16320801 C209.68491592 -2.08948228 215.80590148 -1.51925393 221.64453125 4.18359375 C226.65984095 12.73058456 232.796875 26.29818913 232.796875 36.37890625 C244.676875 36.37890625 256.556875 36.37890625 268.796875 36.37890625 C268.796875 31.09890625 268.796875 25.81890625 268.796875 20.37890625 C270.33396732 11.5662436 274.11769438 6.3099319 280.796875 0.37890625 C289.67215664 -5.71481067 301.30521582 -5.83207427 311.6484375 -4.16015625 C319.88821739 -1.99179312 325.92564683 2.53463669 330.7890625 9.47265625 C334.00186228 15.54957987 334.04626492 21.0464188 333.921875 27.75390625 C333.91285156 28.68074219 333.90382813 29.60757813 333.89453125 30.5625 C333.87110437 32.83490702 333.83830248 35.10676805 333.796875 37.37890625 C335.63378906 37.56066406 335.63378906 37.56066406 337.5078125 37.74609375 C345.05684123 38.70011015 350.84937544 42.53490681 355.515625 48.484375 C359.76542668 54.76838054 361.94385264 60.59737153 361.89453125 68.2421875 C361.89130859 69.12841797 361.88808594 70.01464844 361.88476562 70.92773438 C361.87638672 71.83974609 361.86800781 72.75175781 361.859375 73.69140625 C361.85486328 74.62275391 361.85035156 75.55410156 361.84570312 76.51367188 C361.83396734 78.80214998 361.81754863 81.09049433 361.796875 83.37890625 C362.76367188 83.32089844 363.73046875 83.26289062 364.7265625 83.203125 C374.30600405 82.87116415 381.49598459 83.570888 388.85546875 90.24609375 C396.02259796 97.90493868 397.44927946 104.25866802 397.203125 114.6484375 C396.38949583 122.11974386 393.358703 127.2286353 387.921875 132.31640625 C382.42376739 136.69835667 377.92985795 138.54873918 370.796875 138.37890625 C370.76398677 165.42975337 370.77086989 192.48033594 370.82534122 219.53115463 C370.84970091 232.09083229 370.86095471 244.65026837 370.84155273 257.20996094 C370.82467859 268.15466731 370.83219332 279.09903589 370.86922258 290.0436976 C370.88797914 295.84106763 370.89436818 301.63786613 370.87156868 307.43523407 C370.85050591 312.88886161 370.86198237 318.34144013 370.89871979 323.79497528 C370.90643098 325.79930674 370.90212122 327.80372496 370.88506126 329.80799866 C370.86358009 332.54039412 370.88488453 335.26919205 370.91712952 338.00140381 C370.90063057 338.79906969 370.88413163 339.59673557 370.86713272 340.41857314 C370.8506802 342.91816801 370.8506802 342.91816801 371.796875 346.37890625 C374.01281811 348.29079592 376.07522076 349.16149423 378.796875 350.37890625 C380.72265625 352.2734375 380.72265625 352.2734375 382.109375 354.19140625 C382.81513672 355.12919922 382.81513672 355.12919922 383.53515625 356.0859375 C387.32841054 362.97956063 387.10387157 369.98374128 387.09765625 377.6640625 C387.10194138 378.83851425 387.1062265 380.012966 387.11064148 381.2230072 C387.11636827 383.69822547 387.11689725 386.17346057 387.11254883 388.64868164 C387.10938279 392.43209471 387.1328909 396.21473 387.15820312 399.99804688 C387.16047568 402.4075511 387.16117982 404.81705742 387.16015625 407.2265625 C387.169366 408.35481949 387.17857574 409.48307648 387.18806458 410.64552307 C387.14999313 417.1126525 386.82264086 421.98197978 382.33203125 427.0234375 C376.84778651 431.37301091 372.82701168 431.52650555 365.99689674 431.5075407 C364.80489916 431.51017026 364.80489916 431.51017026 363.58882082 431.51285294 C360.90958933 431.51752766 358.23041177 431.51504365 355.55117798 431.51261902 C353.61747009 431.51448625 351.68376258 431.5167866 349.75005567 431.51948434 C344.42333434 431.5256196 339.09662867 431.52546672 333.76990461 431.52428997 C328.03019943 431.52408639 322.29049934 431.52960052 316.55079651 431.53434753 C305.30099614 431.54266401 294.051201 431.54540282 282.80139782 431.54595991 C273.6601431 431.54643458 264.51889012 431.54848688 255.37763596 431.55166054 C233.69482483 431.55903553 212.01201518 431.56518507 190.32920265 431.56466198 C189.63555656 431.5646464 188.94191048 431.56463082 188.22724481 431.56461477 C184.71143428 431.56453166 181.19562375 431.56443262 177.67981322 431.56433006 C176.63240498 431.56430015 176.63240498 431.56430015 175.56383698 431.56426962 C174.15176028 431.56422919 172.73968357 431.56418739 171.32760687 431.56414423 C149.35446567 431.56353138 127.38133991 431.57103938 105.40820312 431.5847168 C80.73052715 431.6000713 56.0528617 431.60867073 31.3751806 431.60775357 C18.30540731 431.60742113 5.23565142 431.6101889 -7.83411789 431.62093163 C-18.96068686 431.6300183 -30.08723054 431.632227 -41.21380161 431.6254222 C-46.89343776 431.62214776 -52.57302535 431.62213352 -58.25265694 431.63077545 C-63.44882868 431.63860064 -68.64491302 431.63725001 -73.84108253 431.62849132 C-75.72396478 431.62694751 -77.60685342 431.62880536 -79.48972814 431.6343514 C-82.04374697 431.64137786 -84.59745636 431.63614434 -87.15146446 431.62779522 C-87.886997 431.6327634 -88.62252954 431.63773158 -89.38035095 431.64285031 C-96.2627151 431.59509902 -101.16612944 430.13606872 -106.203125 425.37890625 C-108.28228593 422.09430086 -108.47419019 419.42564685 -108.52539062 415.57568359 C-108.54460571 414.40701752 -108.5638208 413.23835144 -108.58361816 412.03427124 C-108.5963678 410.14365463 -108.5963678 410.14365463 -108.609375 408.21484375 C-108.62077515 406.91245758 -108.63217529 405.61007141 -108.6439209 404.26821899 C-108.66490915 401.50936328 -108.67661312 398.75062347 -108.68359375 395.99169922 C-108.69451812 392.48113219 -108.74248113 388.97213457 -108.79953766 385.46205711 C-108.84610193 382.08802102 -108.84971124 378.71418397 -108.859375 375.33984375 C-108.8840686 374.09157806 -108.90876221 372.84331238 -108.9342041 371.55722046 C-108.89322354 363.44891469 -107.51625919 357.66760234 -102.203125 351.37890625 C-97.91061601 347.85867436 -94.71585621 346.48145249 -89.203125 345.37890625 C-89.203125 277.06890625 -89.203125 208.75890625 -89.203125 138.37890625 C-92.173125 138.04890625 -95.143125 137.71890625 -98.203125 137.37890625 C-105.38863913 134.56970686 -110.09786284 128.7473257 -114.078125 122.37890625 C-116.89752809 114.85483656 -116.49268067 105.13593277 -113.203125 97.87890625 C-109.6542658 91.85386564 -104.10429099 86.35230114 -97.4765625 83.80078125 C-91.83568341 82.75402018 -85.9163858 83.18037595 -80.203125 83.37890625 C-80.21883545 82.82541504 -80.2345459 82.27192383 -80.25073242 81.70166016 C-80.86217544 56.90854873 -80.86217544 56.90854873 -72.94140625 47.19921875 C-68.46890352 42.51565409 -63.61640259 38.80407905 -57.203125 37.37890625 C-55.5366359 37.35457794 -53.86955633 37.350899 -52.203125 37.37890625 C-52.22407227 36.82017822 -52.24501953 36.2614502 -52.26660156 35.68579102 C-52.35078794 33.10451952 -52.40210193 30.52353801 -52.453125 27.94140625 C-52.48664062 27.06291016 -52.52015625 26.18441406 -52.5546875 25.27929688 C-52.68333854 16.56318908 -49.95596216 9.4189062 -44.04296875 2.94921875 C-32.50456755 -6.89884342 -12.82350382 -7.97057233 0 0 Z M72.796875 14.37890625 C68.46659828 24.5515509 68.46659828 24.5515509 65.796875 36.37890625 C115.296875 36.37890625 164.796875 36.37890625 215.796875 36.37890625 C213.12715172 24.5515509 213.12715172 24.5515509 208.796875 14.37890625 C163.916875 14.37890625 119.036875 14.37890625 72.796875 14.37890625 Z M131.3125 133.33984375 C130.56226563 134.84417969 130.56226563 134.84417969 129.796875 136.37890625 C126.66585787 137.94441481 123.32566012 137.5328171 119.88766479 137.53712463 C119.0630777 137.54205429 118.2384906 137.54698395 117.38891602 137.55206299 C114.60156472 137.56750788 111.81423626 137.57581842 109.02685547 137.58422852 C107.00412352 137.59393892 104.98139361 137.60408411 102.95866585 137.6146307 C97.5263559 137.64174747 92.09403782 137.66288851 86.66169739 137.68282318 C81.57010157 137.70240376 76.47853752 137.7273315 71.38696289 137.75183105 C56.48195744 137.82041629 41.57691332 137.8803808 26.671875 137.94140625 C-6.616875 138.08578125 -39.905625 138.23015625 -74.203125 138.37890625 C-74.203125 206.68890625 -74.203125 274.99890625 -74.203125 345.37890625 C-70.573125 346.03890625 -66.943125 346.69890625 -63.203125 347.37890625 C-55.97192136 351.14727998 -51.53657404 355.19911114 -48.84448242 363.01489258 C-48.14938214 365.57699993 -47.85460301 368.00563642 -47.62109375 370.6484375 C-47.54012451 371.53764893 -47.45915527 372.42686035 -47.37573242 373.34301758 C-47.29029175 374.35078247 -47.29029175 374.35078247 -47.203125 375.37890625 C-45.85580103 375.38248878 -45.85580103 375.38248878 -44.48125839 375.38614368 C-22.64038635 375.44524213 -0.79962512 375.52075904 21.04112625 375.61462116 C31.60309096 375.65961469 42.16502168 375.69902112 52.72705078 375.7253418 C61.93134922 375.7482931 71.13554043 375.7816589 80.33975387 375.82760781 C85.21474161 375.85157878 90.0896229 375.87028213 94.96466827 375.87652016 C99.5513005 375.88255352 104.13766019 375.90248978 108.72419167 375.93318176 C110.40922722 375.94199011 112.09429835 375.94567881 113.779356 375.94391441 C116.07728119 375.94226771 118.37436956 375.9589082 120.67218018 375.98017883 C122.60241468 375.98709228 122.60241468 375.98709228 124.57164383 375.99414539 C128.02306488 376.40589006 129.43576957 376.86030737 131.796875 379.37890625 C132.126875 380.69890625 132.456875 382.01890625 132.796875 383.37890625 C139.396875 383.37890625 145.996875 383.37890625 152.796875 383.37890625 C153.786875 381.39890625 154.776875 379.41890625 155.796875 377.37890625 C158.6842432 375.93522215 161.18772711 376.23752327 164.41531372 376.22068787 C165.10305937 376.21574989 165.79080501 376.21081191 166.49939144 376.2057243 C168.81485871 376.19030809 171.13029817 376.18197757 173.44580078 376.17358398 C175.10124966 376.16400869 176.75669607 376.15399882 178.41213989 376.14358521 C182.91599433 376.11649222 187.4198593 376.09550649 191.9237504 376.07558322 C196.62699215 376.05375071 201.33020129 376.02634867 206.03341675 375.99952698 C214.9439897 375.94956302 223.85458071 375.90463796 232.76518905 375.86150461 C242.90774837 375.81216384 253.05027497 375.75723402 263.19280267 375.70182502 C284.06079632 375.58794815 304.92882119 375.48112156 325.796875 375.37890625 C325.84585937 374.49775146 325.89484375 373.61659668 325.9453125 372.70874023 C326.05746094 370.96572632 326.05746094 370.96572632 326.171875 369.1875 C326.24148438 368.03822021 326.31109375 366.88894043 326.3828125 365.70483398 C327.12911242 359.7102327 329.37232362 355.39085854 334.0234375 351.53125 C341.68003523 346.25642779 345.57624864 346.23062511 355.796875 345.37890625 C355.796875 277.06890625 355.796875 208.75890625 355.796875 138.37890625 C290.81498537 138.20834973 290.81498537 138.20834973 225.83300781 138.08105469 C213.28271484 138.03564453 213.28271484 138.03564453 207.41278076 138.00933838 C203.30125257 137.99229021 199.18987085 137.98647659 195.07830811 137.98736572 C189.83879689 137.98813465 184.59967838 137.96993814 179.36026907 137.9378171 C177.43425467 137.92927372 175.50819616 137.92747759 173.58217096 137.9330821 C170.98588844 137.93968206 168.39089169 137.92191916 165.79473877 137.89788818 C165.03619976 137.90564899 164.27766075 137.91340981 163.49613571 137.92140579 C160.05018085 137.86487968 158.14318908 137.64104468 155.35950851 135.53396988 C153.796875 133.37890625 153.796875 133.37890625 152.796875 130.37890625 C149.71426044 130.20426655 146.63291667 130.09796558 143.546875 130.00390625 C142.67417969 129.95363281 141.80148437 129.90335938 140.90234375 129.8515625 C135.32386863 129.62850232 135.32386863 129.62850232 131.3125 133.33984375 Z " fill="#010101" transform="translate(115.203125,42.62109375)"/>
<path d="M0 0 C6.27 0 12.54 0 19 0 C19.99 1.98 20.98 3.96 22 6 C25.09378755 7.54689377 28.36117992 7.15387663 31.75735474 7.15821838 C32.56564728 7.16314804 33.37393982 7.1680777 34.20672607 7.17315674 C36.93875914 7.18860056 39.67076889 7.19691188 42.40283203 7.20532227 C44.38551479 7.21503275 46.36819546 7.22517795 48.35087395 7.23572445 C53.67544642 7.26284033 59.00002718 7.28398184 64.32463074 7.30391693 C69.31531545 7.32349805 74.30596776 7.34842555 79.29663086 7.3729248 C93.90606292 7.44150902 108.51553441 7.50147419 123.125 7.5625 C172.068125 7.7790625 172.068125 7.7790625 222 8 C222 76.31 222 144.62 222 215 C218.04 215.33 214.08 215.66 210 216 C203.97820777 218.46346046 199.46245644 220.32157144 196 226 C195.1646875 227.2375 195.1646875 227.2375 194.3125 228.5 C192.30348324 233.85737804 192.24441029 239.31956769 192 245 C191.67 245 191.34 245 191 245 C191 174.71 191 104.42 191 32 C59.66 32 -71.68 32 -207 32 C-207 92.39 -207 152.78 -207 215 C-207.33 215 -207.66 215 -208 215 C-208 146.69 -208 78.38 -208 8 C-107.25 7.6875 -107.25 7.6875 -75.40332031 7.61206055 C-66.00691912 7.57550897 -66.00691912 7.57550897 -56.61053467 7.5349884 C-52.415699 7.51700551 -48.22093337 7.5074357 -44.02606201 7.50288391 C-38.68056165 7.49681097 -33.33529477 7.47653915 -27.98988104 7.44583857 C-26.02478967 7.43699705 -24.05966777 7.43320877 -22.09455729 7.43496072 C-19.44600147 7.43660718 -16.79817527 7.42001539 -14.14971924 7.39872742 C-13.37562084 7.40357556 -12.60152245 7.40842371 -11.80396652 7.41341877 C-8.68915593 7.37203665 -6.38721155 7.20704275 -3.61564255 5.72507954 C-1.66665823 3.80831223 -1.66665823 3.80831223 0 0 Z " fill="#E3E2EA" transform="translate(249,173)"/>
<path d="M0 0 C1.16982422 0.00108765 1.16982422 0.00108765 2.36328125 0.00219727 C3.22695313 0.00026367 4.090625 -0.00166992 4.98046875 -0.00366211 C5.86992188 0.02018555 6.759375 0.0440332 7.67578125 0.06860352 C9.00996094 0.05216797 9.00996094 0.05216797 10.37109375 0.03540039 C14.63686044 0.08315151 17.05524796 0.2440617 20.73828125 2.54125977 C23.49281034 5.51237481 23.80096193 7.14916679 23.88671875 11.09594727 C23.91507813 11.97831055 23.9434375 12.86067383 23.97265625 13.76977539 C24.02462499 15.63155561 24.06893048 17.49356594 24.10546875 19.35571289 C24.13640625 20.23936523 24.16734375 21.12301758 24.19921875 22.03344727 C24.21903809 22.84289795 24.23885742 23.65234863 24.25927734 24.48632812 C24.80074179 27.27458439 25.36047617 27.97159261 27.67578125 29.63110352 C30.23647806 29.92572729 32.55433333 30.03596612 35.11560059 30.01205444 C35.87967145 30.01673442 36.64374232 30.02141439 37.43096685 30.02623618 C39.99907475 30.03823147 42.56665348 30.02871147 45.13476562 30.01928711 C46.97268486 30.0233508 48.81060165 30.02869154 50.64851379 30.03521729 C55.64637273 30.04892075 60.64404637 30.04357975 65.64190865 30.03408003 C70.86556635 30.02649911 76.0892079 30.03352467 81.31286621 30.03823853 C90.08604794 30.04370066 98.85915397 30.03649247 107.63232422 30.0222168 C117.7837822 30.00588942 127.93505944 30.01117761 138.08651304 30.02769601 C146.79314585 30.04129785 155.49972416 30.04323692 164.20636415 30.03538001 C169.41048935 30.03069632 174.61452952 30.03009771 179.81864929 30.03998947 C184.71060865 30.04863793 189.60233437 30.04267614 194.49426842 30.0253067 C196.29262084 30.02133049 198.09099283 30.0224952 199.88933754 30.0290947 C202.3384803 30.03725569 204.78686769 30.02705527 207.23596191 30.01205444 C208.31119559 30.02209269 208.31119559 30.02209269 209.40815115 30.03233373 C212.2620378 29.99827419 214.20308271 29.96312731 216.57826996 28.29479408 C217.86095904 26.50629677 217.86095904 26.50629677 218.67578125 23.63110352 C221.94614853 23.4860019 225.21569132 23.39710979 228.48828125 23.31860352 C229.41705078 23.27670898 230.34582031 23.23481445 231.30273438 23.19165039 C233.85297839 23.14561711 236.17021015 23.14777487 238.67578125 23.63110352 C240.75 26.08813477 240.75 26.08813477 241.67578125 28.63110352 C243.58727174 30.54259401 247.03564264 29.77004883 249.56465149 29.77827454 C250.29363952 29.78195122 251.02262756 29.78562791 251.77370614 29.78941602 C254.23496796 29.8004958 256.69618763 29.80430392 259.1574707 29.80810547 C260.91465389 29.81436687 262.67183574 29.82101338 264.42901611 29.82801819 C269.21625826 29.84545789 274.00349039 29.85598797 278.79075646 29.86422372 C281.77900064 29.86936745 284.76724167 29.87544345 287.75548363 29.88173485 C297.09722969 29.90079497 306.43896781 29.9150245 315.78072959 29.92334682 C326.57865883 29.9331241 337.37638334 29.95945299 348.17424041 29.99984771 C356.51056163 30.0299679 364.84682403 30.04481178 373.18319863 30.04812783 C378.16667668 30.05048298 383.14993622 30.05950352 388.13335609 30.084589 C392.82093954 30.10780326 397.50815959 30.11212988 402.19578552 30.10182762 C403.91794223 30.10133053 405.64011642 30.10770186 407.36221886 30.12138367 C409.71057238 30.13899945 412.05760714 30.13204861 414.40596008 30.11885071 C415.72098165 30.12123906 417.03600321 30.12362741 418.39087391 30.12608814 C422.20843802 29.55084039 423.393627 28.68550622 425.67578125 25.63110352 C426.22943848 23.40892255 426.22943848 23.40892255 426.109375 21.04125977 C426.11904297 20.17436523 426.12871094 19.3074707 426.13867188 18.41430664 C426.12178086 16.60436972 426.10096429 14.79446507 426.07617188 12.98461914 C426.13057036 8.67433903 426.28637526 6.25242937 428.6171875 2.53344727 C432.8783926 -0.11688081 436.25684163 -0.0346188 441.17578125 0.13110352 C442.01753906 0.12852539 442.85929687 0.12594727 443.7265625 0.12329102 C448.48659883 0.19825222 451.83650457 0.52311764 455.67578125 3.63110352 C463.42891682 19.13737465 456.67578125 38.29456535 456.67578125 55.63110352 C303.55578125 55.63110352 150.43578125 55.63110352 -7.32421875 55.63110352 C-7.32421875 1.98877158 -7.32421875 1.98877158 0 0 Z " fill="#365D7C" transform="translate(29.32421875,402.368896484375)"/>
<path d="M0 0 C0.66190285 -0.00551417 1.3238057 -0.01102833 2.00576621 -0.0167096 C4.22169654 -0.03029527 6.43650324 -0.01541398 8.65241241 -0.00063419 C10.25786694 -0.00452742 11.86331803 -0.01016804 13.46876097 -0.01740509 C17.87895602 -0.03217467 22.28879456 -0.02196964 26.69897819 -0.00766838 C31.4556961 0.003429 36.2123635 -0.0084971 40.96907806 -0.01751041 C50.28688903 -0.0314533 59.60456459 -0.02387895 68.92236912 -0.00883483 C79.77006974 0.00801363 90.61773652 0.00481647 101.46544617 0.00107109 C120.8186892 -0.00480942 140.17186719 0.00937155 159.52509308 0.03401852 C178.31059965 0.05793983 197.09601933 0.06502301 215.88153839 0.05452633 C236.33070157 0.04312056 256.77982453 0.04118285 277.22898722 0.05562443 C279.40895239 0.05715029 281.58891757 0.05867064 283.76888275 0.06018543 C285.37781979 0.06132215 285.37781979 0.06132215 287.01926062 0.06248184 C294.58321747 0.0672273 302.14715639 0.06537137 309.71111298 0.06112003 C318.92725415 0.05619658 328.14331311 0.06216341 337.35943544 0.08201433 C342.06292885 0.09189526 346.76629701 0.09698279 351.46979713 0.08912182 C355.77405082 0.08207521 360.07805154 0.08884568 364.38227183 0.10672545 C365.94073054 0.11077658 367.49921223 0.10975894 369.05766243 0.10320658 C371.17428863 0.09506795 373.29006006 0.10535346 375.40663147 0.12025452 C376.58279038 0.12128365 377.75894929 0.12231278 378.97074938 0.12337309 C383.942943 0.70356297 387.1745399 2.36057641 390.51581573 6.06307125 C396.52146282 14.73789482 393.20331573 14.94722497 393.20331573 31.50057125 C257.90331573 31.50057125 122.60331573 31.50057125 -16.79668427 31.50057125 C-16.79668427 10.50057125 -16.79668427 10.50057125 -12.79668427 4.50057125 C-8.48531257 0.92397575 -5.55877476 0.0005073 0 0 Z " fill="#FED671" transform="translate(67.79668426513672,94.49942874908447)"/>
<path d="M0 0 C1.17933478 -0.00525911 1.17933478 -0.00525911 2.38249451 -0.01062447 C5.03306133 -0.01997338 7.68341011 -0.01500619 10.33398628 -0.01015663 C12.24707155 -0.01389113 14.16015528 -0.01849184 16.07323658 -0.02388728 C21.34296315 -0.03615739 26.61262643 -0.0358521 31.88236403 -0.03349853 C37.5607265 -0.03309137 43.23906839 -0.04411975 48.91742134 -0.05361366 C60.04690683 -0.07024637 71.17637114 -0.07572422 82.30586801 -0.07683842 C91.34939429 -0.07778777 100.39291355 -0.08189242 109.43643761 -0.08823967 C130.88763356 -0.10298962 152.33882258 -0.11528875 173.7900238 -0.11424255 C174.81937148 -0.11419582 174.81937148 -0.11419582 175.86951406 -0.11414814 C179.34774185 -0.11398192 182.82596963 -0.11378384 186.30419742 -0.11357872 C187.34040861 -0.11351889 187.34040861 -0.11351889 188.39755336 -0.11345784 C189.79453462 -0.11337697 191.19151587 -0.11329337 192.58849713 -0.11320706 C214.32669514 -0.11198135 236.06483078 -0.1269973 257.80301094 -0.15435219 C282.21700621 -0.1850615 306.63095011 -0.20226005 331.04496777 -0.20042574 C343.97503435 -0.19976087 356.9050306 -0.20529597 369.8350811 -0.22678185 C380.84273074 -0.24495561 391.85027814 -0.24937231 402.85793625 -0.235763 C408.47686829 -0.22921424 414.09560399 -0.22918483 419.71451759 -0.2464695 C424.85526756 -0.26212099 429.9956642 -0.25941804 435.13640513 -0.24190123 C436.99910024 -0.23881381 438.86182121 -0.24252876 440.72448586 -0.25362138 C443.25160014 -0.26767777 445.77746397 -0.25720791 448.30453491 -0.24050903 C449.03204572 -0.25044539 449.75955654 -0.26038175 450.50911313 -0.27061921 C456.46760629 -0.18706206 459.89537392 2.0333832 464.1531086 6.00726891 C465.83686295 9.37477761 465.82296142 12.61038733 465.2781086 16.25726891 C463.78092878 19.46551138 462.00292323 21.98659004 459.2781086 24.25726891 C455.42623909 25.54122541 451.79575826 25.39708567 447.78203011 25.38857079 C446.46547295 25.39174436 446.46547295 25.39174436 445.12231869 25.39498204 C442.16976034 25.40099228 439.2172446 25.39998116 436.26468086 25.39911461 C434.15252802 25.40214537 432.04037584 25.40566659 429.92822456 25.40964317 C425.37416765 25.41753805 420.8201186 25.42267926 416.26605606 25.42593384 C409.06903488 25.43183581 401.87206336 25.44836769 394.67506599 25.46727562 C392.21302703 25.47361309 389.75098804 25.47993871 387.28894901 25.48625278 C385.43939997 25.4910015 385.43939997 25.4910015 383.5524863 25.49584615 C366.79266018 25.53796067 350.03285716 25.57091174 333.27298164 25.58319664 C321.97343866 25.59156434 310.67401848 25.6140062 299.37453693 25.65255231 C293.39179381 25.67235486 287.40923446 25.68470359 281.42645645 25.67971802 C275.80148777 25.67508767 270.17686786 25.68878851 264.55196953 25.71673012 C262.48474777 25.72366885 260.41749015 25.72373984 258.35026932 25.71652985 C255.53348358 25.70769585 252.71786159 25.72324638 249.90117073 25.7450161 C249.07831457 25.73657356 248.25545841 25.72813102 247.40766722 25.71943265 C243.7857729 25.77138768 241.71580501 25.92021511 238.80166721 28.16428471 C237.25173598 30.1726585 237.25173598 30.1726585 236.2781086 32.25726891 C226.3781086 32.75226891 226.3781086 32.75226891 216.2781086 33.25726891 C215.2881086 30.78226891 215.2881086 30.78226891 214.2781086 28.25726891 C210.38037409 25.65877923 207.13196849 25.98683646 202.61239815 26.01917076 C201.71639231 26.01761175 200.82038648 26.01605275 199.89722896 26.0144465 C196.88250905 26.01148133 193.868003 26.02268296 190.85330391 26.03363609 C188.69675893 26.03416011 186.54021354 26.03372523 184.3836689 26.03240013 C179.73301653 26.03106445 175.08241682 26.03548927 170.43177223 26.04400444 C163.07849515 26.05636197 155.72531658 26.04945012 148.3720417 26.03857994 C127.45984474 26.01008176 106.54773176 25.99769115 85.63553047 26.02728844 C74.09093054 26.04346588 62.54654478 26.03835284 51.00196719 26.00949216 C44.89103202 25.99518424 38.78054243 25.99220884 32.66962624 26.01571465 C26.92061151 26.03782391 21.17228908 26.03235207 15.42329979 26.00572968 C13.31378505 26.00095461 11.20421825 26.00643933 9.0947628 26.02296066 C6.21291719 26.0440417 3.33351605 26.02821144 0.45175362 26.00330162 C-0.79860495 26.02572713 -0.79860495 26.02572713 -2.07422328 26.04860568 C-7.5525579 25.94869741 -10.40173042 24.56137552 -14.41549611 20.83650994 C-16.9747823 17.74270686 -17.11660043 14.22843624 -17.0734539 10.32367516 C-16.43504603 6.57125552 -14.44399678 4.85564222 -11.7218914 2.25726891 C-8.05373547 -0.23553231 -4.27782424 -0.02401632 0 0 Z " fill="#365D7C" transform="translate(31.721891403198242,140.74273109436035)"/>
<path d="M0 0 C3.46001939 0.84578252 5.27257984 2.22014899 7.8125 4.6875 C10.96446244 10.99142487 7.91130304 18.98862004 6.125 25.3125 C3.66633852 34.33174359 1.45295333 43.37053905 -0.5378418 52.50439453 C-0.72644775 53.3601709 -0.91505371 54.21594727 -1.109375 55.09765625 C-1.27018555 55.84152588 -1.43099609 56.58539551 -1.59667969 57.35180664 C-2.31333491 60.18496387 -3.23783671 62.92477536 -4.1875 65.6875 C-3.00720215 65.67178955 -1.8269043 65.6560791 -0.61083984 65.63989258 C3.78362152 65.58544106 8.17805326 65.55109462 12.57275391 65.52270508 C14.47189353 65.50765309 16.37099859 65.48720684 18.27001953 65.46118164 C21.00562081 65.42464008 23.740761 65.40773762 26.4765625 65.39453125 C27.32054596 65.37904739 28.16452942 65.36356354 29.03408813 65.34761047 C34.03580209 65.34619445 37.50406931 65.85784192 41.8125 68.6875 C44.38941616 72.55287424 44.39809425 74.07594528 43.8125 78.6875 C40.80091088 85.71879495 35.61911975 91.58331243 30.82666016 97.46166992 C26.55630197 102.70679785 22.47499015 108.07408473 18.4375 113.5 C13.02758959 120.76043283 7.53866478 127.94949699 1.96166992 135.08227539 C-2.68629295 141.02931313 -7.27751578 147.01789622 -11.83837891 153.03198242 C-22.59916641 167.17488092 -22.59916641 167.17488092 -29.6875 168.1875 C-33.1875 167.6875 -33.1875 167.6875 -36.125 165.8125 C-39.31489386 160.97932749 -38.71049634 155.93834043 -37.80737305 150.32470703 C-37.28204242 147.92793389 -36.68760367 145.56017509 -36.0625 143.1875 C-35.60676488 141.37142149 -35.15240763 139.55499682 -34.69921875 137.73828125 C-34.45606934 136.77486816 -34.21291992 135.81145508 -33.96240234 134.81884766 C-32.52767821 129.02118799 -31.20820305 123.19667993 -29.875 117.375 C-29.35818016 115.12888157 -28.84126228 112.8827857 -28.32421875 110.63671875 C-27.94520572 108.98700369 -27.56625567 107.33727416 -27.1875 105.6875 C-28.80591797 105.7189209 -28.80591797 105.7189209 -30.45703125 105.75097656 C-34.48993468 105.82380424 -38.5227809 105.86945384 -42.55615234 105.90722656 C-44.29616089 105.92724522 -46.03610299 105.95446886 -47.77587891 105.98925781 C-50.28825346 106.03820952 -52.79973275 106.06056587 -55.3125 106.078125 C-56.08053955 106.09877014 -56.8485791 106.11941528 -57.63989258 106.14068604 C-63.09828414 106.14291407 -67.77840238 105.06698435 -72.1875 101.6875 C-74.31089994 98.16890626 -74.79708322 95.80218672 -74.1875 91.6875 C-70.45734208 83.43547718 -64.21573105 76.45187637 -58.58691406 69.44140625 C-56.46172735 66.77787846 -54.38715905 64.07813883 -52.3125 61.375 C-51.90974854 60.850271 -51.50699707 60.32554199 -51.09204102 59.78491211 C-49.78942817 58.08661378 -48.48826705 56.38721245 -47.1875 54.6875 C-46.44910889 53.72287842 -46.44910889 53.72287842 -45.69580078 52.73876953 C-41.85743225 47.72341295 -38.02218418 42.70567385 -34.1875 37.6875 C-33.06512745 36.21873221 -31.94273169 34.74998215 -30.8203125 33.28125 C-30.26988281 32.5608252 -29.71945313 31.84040039 -29.15234375 31.09814453 C-28.05710104 29.66597876 -26.96075911 28.2346529 -25.86328125 26.80419922 C-23.36305498 23.54432391 -20.87562285 20.27742232 -18.4296875 16.9765625 C-6.89436885 1.48702073 -6.89436885 1.48702073 0 0 Z " fill="#040303" transform="translate(271.1875,215.3125)"/>
<path d="M0 0 C1.28505458 4.21752599 0.37706916 7.46978119 -0.75 11.625 C-0.9346582 12.33849609 -1.11931641 13.05199219 -1.30957031 13.78710938 C-2.34318826 17.73235232 -3.49276962 21.61951008 -4.75 25.5 C-6.30811071 30.55747412 -6.94287128 35.24391471 -5.1875 40.375 C-3.92454922 42.29911164 -3.92454922 42.29911164 -1 44 C1.96884465 44.24144163 4.851868 44.37307097 7.82421875 44.4140625 C8.68561966 44.43342865 9.54702057 44.4527948 10.43452454 44.4727478 C13.18541568 44.5325203 15.93634873 44.57891948 18.6875 44.625 C20.55275261 44.66318194 22.41798763 44.7022338 24.28320312 44.7421875 C28.85532586 44.8382199 33.42753114 44.9222595 38 45 C34.11356698 50.99868186 30.00136769 56.71288473 25.5625 62.3125 C19.68018497 69.80016541 13.92684454 77.3750403 8.23852539 85.01098633 C4.2247529 90.39320385 0.14166105 95.71554 -4 101 C-5.17711363 97.55548308 -4.80256119 95.42465942 -3.78515625 91.96484375 C-3.51123047 90.98966797 -3.23730469 90.01449219 -2.95507812 89.00976562 C-2.36765487 86.98784706 -1.7766049 84.96697805 -1.18164062 82.94726562 C0.66495971 76.34361524 2.00024578 69.87357773 1 63 C-1.52570633 59.58688333 -2.99913304 58.33362232 -7 57 C-9.65606301 56.84653047 -12.29095095 56.74282102 -14.94921875 56.68359375 C-15.72183548 56.66281265 -16.49445221 56.64203156 -17.29048157 56.62062073 C-19.7560648 56.55528962 -22.22175361 56.49631685 -24.6875 56.4375 C-26.36003691 56.39429913 -28.03256319 56.35068434 -29.70507812 56.30664062 C-33.8032775 56.1996251 -37.90158296 56.09831143 -42 56 C-40.66477642 53.14027433 -39.15297638 50.74467382 -37.19921875 48.26953125 C-36.64097412 47.55788818 -36.08272949 46.84624512 -35.50756836 46.11303711 C-34.60663452 44.97427124 -34.60663452 44.97427124 -33.6875 43.8125 C-32.41086025 42.18536491 -31.13483238 40.55774957 -29.859375 38.9296875 C-29.21291016 38.1056543 -28.56644531 37.28162109 -27.90039062 36.43261719 C-25.05295052 32.78771826 -22.24246116 29.11513489 -19.4375 25.4375 C-18.91542969 24.75349121 -18.39335937 24.06948242 -17.85546875 23.36474609 C-16.79209871 21.97119573 -15.72894906 20.57747716 -14.66601562 19.18359375 C-11.67667281 15.2655571 -8.68168571 11.35183607 -5.6875 7.4375 C-4.58721649 5.99871558 -3.48695383 4.55991521 -2.38671875 3.12109375 C-1.59910156 2.09113281 -0.81148438 1.06117188 0 0 Z " fill="#F8D16E" transform="translate(258,250)"/>
<path d="M0 0 C4.73222455 -0.07445407 9.46410411 -0.1287447 14.19677734 -0.16479492 C15.80491072 -0.17983176 17.41300344 -0.20026672 19.02099609 -0.22631836 C21.33962064 -0.26292822 23.65770049 -0.27977722 25.9765625 -0.29296875 C27.04567368 -0.31619453 27.04567368 -0.31619453 28.13638306 -0.33988953 C32.84590825 -0.34145828 36.00372513 0.5175551 40 3 C43.64598827 7.04014916 45.13012842 9.3986818 45.09765625 14.7890625 C45.09515869 15.63678223 45.09266113 16.48450195 45.09008789 17.35791016 C45.08098389 18.4360498 45.07187988 19.51418945 45.0625 20.625 C45.041875 24.04875 45.02125 27.4725 45 31 C31.8 31 18.6 31 5 31 C4.75 21.125 4.75 21.125 4.70214844 18.07861328 C4.45426541 11.37663906 2.85865985 6.0512138 0 0 Z " fill="#FAB957" transform="translate(416,95)"/>
<path d="M0 0 C2.8125 1.75 2.8125 1.75 5 5 C5.41970516 9.03441588 5.2899979 12.95936258 5 17 C5.81984375 16.95359375 6.6396875 16.9071875 7.484375 16.859375 C8.56203125 16.82328125 9.6396875 16.7871875 10.75 16.75 C12.35101563 16.68039063 12.35101563 16.68039063 13.984375 16.609375 C17 17 17 17 19.35546875 18.83203125 C21 21 21 21 21.5625 23.9375 C21 27 21 27 19.1875 29.875 C14.56130904 32.95912731 10.40469637 32.42593929 5 32 C5.05800781 32.73605469 5.11601562 33.47210938 5.17578125 34.23046875 C5.5435454 42.1846819 5.5435454 42.1846819 2.875 46.1875 C-0.51266526 48.32320201 -2.07353555 48.75187617 -6 48 C-8.16796875 46.35546875 -8.16796875 46.35546875 -10 44 C-10.390625 40.984375 -10.390625 40.984375 -10.25 37.75 C-10.21390625 36.67234375 -10.1778125 35.5946875 -10.140625 34.484375 C-10.09421875 33.66453125 -10.0478125 32.8446875 -10 32 C-10.73605469 32.04640625 -11.47210938 32.0928125 -12.23046875 32.140625 C-20.08389467 32.43110839 -20.08389467 32.43110839 -24.1875 30.5 C-26.8985831 26.76057503 -26.57958565 24.564237 -26 20 C-24.88671875 18.265625 -24.88671875 18.265625 -23 17 C-19.86328125 16.70703125 -19.86328125 16.70703125 -16.3125 16.8125 C-15.13300781 16.83957031 -13.95351563 16.86664063 -12.73828125 16.89453125 C-11.83464844 16.92933594 -10.93101562 16.96414062 -10 17 C-10.05800781 16.10796875 -10.11601562 15.2159375 -10.17578125 14.296875 C-10.22089844 13.12640625 -10.26601563 11.9559375 -10.3125 10.75 C-10.37050781 9.58984375 -10.42851562 8.4296875 -10.48828125 7.234375 C-10 4 -10 4 -7.63671875 1.61328125 C-4.63687687 -0.22217756 -3.43127101 -0.77203598 0 0 Z " fill="#060606" transform="translate(403,234)"/>
<path d="M0 0 C4.87461475 -0.09924823 9.74863497 -0.17164581 14.62402344 -0.21972656 C16.28070325 -0.23978009 17.93731282 -0.26703029 19.59375 -0.30175781 C21.98194758 -0.35055512 24.36920547 -0.37303064 26.7578125 -0.390625 C27.85973434 -0.42159271 27.85973434 -0.42159271 28.98391724 -0.45318604 C35.10574109 -0.45582722 38.5036158 1.67004141 42.875 5.75 C44.55875435 9.11750871 44.54485282 12.35311843 44 16 C42.50282018 19.20824247 40.72481464 21.72932114 38 24 C34.30459598 25.23180134 30.89696622 25.12412112 27.05078125 25.09765625 C26.27816452 25.0962413 25.50554779 25.09482635 24.70951843 25.09336853 C22.24380611 25.08777466 19.77818485 25.07522333 17.3125 25.0625 C15.63997527 25.05748421 13.96744912 25.05292144 12.29492188 25.04882812 C8.19657954 25.03780724 4.09830521 25.02054684 0 25 C0.48678223 23.89317871 0.97356445 22.78635742 1.47509766 21.64599609 C4.03982991 15.51379765 3.65855516 10.43365729 1.4765625 4.2109375 C1.20150879 3.4173584 0.92645508 2.6237793 0.64306641 1.80615234 C0.43085449 1.21012207 0.21864258 0.6140918 0 0 Z " fill="#2A4C65" transform="translate(453,141)"/>
<path d="M0 0 C0.75152344 -0.02900391 1.50304687 -0.05800781 2.27734375 -0.08789062 C7.57271225 -0.14796025 10.61271897 0.71992017 14.75 4.3125 C17.75 9.3125 17.75 9.3125 17.75 26.3125 C6.53 26.3125 -4.69 26.3125 -16.25 26.3125 C-17.05357143 7.96428571 -17.05357143 7.96428571 -13.375 3.75 C-8.78155282 0.1671112 -5.66872457 0.07145451 0 0 Z " fill="#F17B7B" transform="translate(416.25,53.6875)"/>
<path d="M0 0 C0.75087891 -0.01160156 1.50175781 -0.02320313 2.27539062 -0.03515625 C8.27260549 -0.00350868 11.39074768 1.38422704 15.859375 5.48046875 C18.27537373 9.58655833 18.00229372 13.02705636 17.8125 17.6875 C17.73 20.554375 17.6475 23.42125 17.5625 26.375 C6.3425 26.375 -4.8775 26.375 -16.4375 26.375 C-16.4375 7.67431973 -16.4375 7.67431973 -10.71484375 1.5234375 C-7.24376007 -0.22698892 -3.79672245 -0.05836123 0 0 Z " fill="#A0D2FD" transform="translate(94.4375,53.625)"/>
<path d="M0 0 C3.06303578 -0.08115993 6.12390815 -0.14057409 9.1875 -0.1875 C10.48397461 -0.22520508 10.48397461 -0.22520508 11.80664062 -0.26367188 C16.68835222 -0.3197835 20.067322 -0.25490183 24 3 C25.23080509 5.46161017 25.12043977 7.06496993 25.11352539 9.81689453 C25.11344986 10.81778107 25.11337433 11.8186676 25.11329651 12.84988403 C25.10813522 13.93325043 25.10297394 15.01661682 25.09765625 16.1328125 C25.0962413 17.23978485 25.09482635 18.3467572 25.09336853 19.48727417 C25.08775772 23.03320993 25.07520337 26.57908323 25.0625 30.125 C25.05748639 32.52473867 25.05292325 34.92447833 25.04882812 37.32421875 C25.03778478 43.21617001 25.02051286 49.1080744 25 55 C20.38 55 15.76 55 11 55 C10.97494385 53.50106201 10.9498877 52.00212402 10.92407227 50.45776367 C10.83002669 44.90591621 10.72979895 39.35419469 10.62768555 33.80249023 C10.58432591 31.39789777 10.5426516 28.99327431 10.50268555 26.58862305 C10.44500811 23.13580984 10.38130615 19.68315281 10.31640625 16.23046875 C10.29969376 15.15226364 10.28298126 14.07405853 10.26576233 12.96318054 C10.24581711 11.96236954 10.22587189 10.96155853 10.20532227 9.93041992 C10.18977798 9.04883713 10.1742337 8.16725433 10.15821838 7.25895691 C10.0825248 4.8322892 10.0825248 4.8322892 9 2 C6.03 1.67 3.06 1.34 0 1 C0 0.67 0 0.34 0 0 Z " fill="#2A4C65" transform="translate(461,403)"/>
<path d="M0 0 C0.76313004 -0.00524185 1.52626007 -0.0104837 2.31251526 -0.0158844 C3.92553491 -0.02230379 5.53860139 -0.02096861 7.15161133 -0.01245117 C9.61689885 -0.00394767 12.07986374 -0.03268882 14.54492188 -0.06445312 C16.11328056 -0.06606546 17.68164333 -0.06548699 19.25 -0.0625 C19.98552597 -0.07373398 20.72105194 -0.08496796 21.47886658 -0.09654236 C24.91285621 -0.04990537 26.85443194 0.18546754 29.65258789 2.24584961 C31.92537465 5.47707952 31.80978808 7.58588456 31.19140625 11.43359375 C28.43898319 14.32232975 26.7491544 15.34633953 22.78149414 15.96704102 C21.5052417 15.97791748 20.22898926 15.98879395 18.9140625 16 C18.22509384 16.00619858 17.53612518 16.01239716 16.82627869 16.01878357 C15.37484137 16.02586004 13.92332252 16.02274558 12.47192383 16.01000977 C10.26295023 15.99615049 8.05822509 16.03022465 5.84960938 16.06835938 C4.43359272 16.06931083 3.01757082 16.06745032 1.6015625 16.0625 C-0.31450806 16.06358765 -0.31450806 16.06358765 -2.26928711 16.06469727 C-6.93894388 15.2320379 -8.56942589 13.85951098 -11.80859375 10.43359375 C-11.86866465 6.94948169 -11.6252865 4.70883257 -9.73022461 1.74975586 C-6.71705818 -0.31402006 -3.52796222 -0.01404219 0 0 Z " fill="#070707" transform="translate(93.80859375,250.56640625)"/>
<path d="M0 0 C9.69128788 -0.57007576 9.69128788 -0.57007576 14 3 C17.15511926 6.02147701 18.26375679 8.14229789 18.390625 12.42578125 C18.36796621 14.05520428 18.31630871 15.68426906 18.25 17.3125 C18.1675 20.179375 18.085 23.04625 18 26 C6.78 26 -4.44 26 -16 26 C-16 20.39 -16 14.78 -16 9 C-15.67 9 -15.34 9 -15 9 C-15 14.28 -15 19.56 -15 25 C-8.73 25 -2.46 25 4 25 C3.8453125 20.7615625 3.8453125 20.7615625 3.6875 16.4375 C3.66260498 15.56150146 3.63770996 14.68550293 3.61206055 13.78295898 C3.36817398 8.52841988 2.35705053 4.70778189 0 0 Z " fill="#75C8F1" transform="translate(94,54)"/>
<path d="M0 0 C4.71190102 -0.37695208 8.07370593 -0.46314703 12.375 1.6875 C15 4 15 4 18 9 C18 14.61 18 20.22 18 26 C6.78 26 -4.44 26 -16 26 C-16 25.67 -16 25.34 -16 25 C-9.4 25 -2.8 25 4 25 C3.5317633 12.19566221 3.5317633 12.19566221 0 0 Z " fill="#DF626B" transform="translate(416,54)"/>
<path d="M0 0 C0.625 1.875 0.625 1.875 1 4 C-0.95216435 5.95216435 -2.53199953 6.84826645 -5 8 C-3.62845496 5.04590299 -2.01136276 2.55991624 0 0 Z " fill="#D0AF5D" transform="translate(258,250)"/>
</svg>
